<svg width="560" height="420" viewBox="0 0 560 420" fill="none" xmlns="http://www.w3.org/2000/svg">
  <rect width="560" height="420" rx="28" fill="#FFF4F3"/>
  <circle cx="120" cy="126" r="34" fill="#FFD2CF"/>
  <circle cx="280" cy="108" r="34" fill="#FFD2CF"/>
  <circle cx="438" cy="126" r="34" fill="#FFD2CF"/>
  <rect x="84" y="164" width="72" height="106" rx="30" fill="#E03127"/>
  <rect x="244" y="146" width="72" height="124" rx="30" fill="#212529"/>
  <rect x="402" y="164" width="72" height="106" rx="30" fill="#E03127"/>
  <rect x="52" y="268" width="136" height="78" rx="18" fill="#FFFFFF"/>
  <rect x="212" y="268" width="136" height="78" rx="18" fill="#FFFFFF"/>
  <rect x="372" y="268" width="136" height="78" rx="18" fill="#FFFFFF"/>
  <path d="M84 294H156" stroke="#E03127" stroke-width="8" stroke-linecap="round"/>
  <path d="M244 294H316" stroke="#E03127" stroke-width="8" stroke-linecap="round"/>
  <path d="M404 294H476" stroke="#E03127" stroke-width="8" stroke-linecap="round"/>
  <path d="M78 320H162" stroke="#CED4DA" stroke-width="8" stroke-linecap="round"/>
  <path d="M238 320H322" stroke="#CED4DA" stroke-width="8" stroke-linecap="round"/>
  <path d="M398 320H482" stroke="#CED4DA" stroke-width="8" stroke-linecap="round"/>
</svg>
